PathFileType	4	(X/Y/Z)	C:/Users/opensim2020/Desktop/walking_exp_matlab/subject02_walking09_straight_02.trc	
DataRate	CameraRate	NumFrames	NumMarkers	Units	OrigDataRate	OrigDataStartFrame	OrigNumFrames	
100.00	100.00	8	42	mm	100.00	1323	436	
Frame#	Time	LFHD			RFHD			LBHD			RBHD			C7			T10			CLAV			STRN			RBAK			LSHO			LUPA			LELB			LFRM			LWRA			LWRB			LFIN			RSHO			RUPA			RELB			RFRM			RWRA			RWRB			RFIN			LASI			RASI			LPSI			RPSI			LTHI			LKNE			LTIB			LANK			LHEE			LTOE			RTHI			RKNE			RTIB			RANK			RHEE			RTOE			*39			*40			*41			
		X1	Y1	Z1	X2	Y2	Z2	X3	Y3	Z3	X4	Y4	Z4	X5	Y5	Z5	X6	Y6	Z6	X7	Y7	Z7	X8	Y8	Z8	X9	Y9	Z9	X10	Y10	Z10	X11	Y11	Z11	X12	Y12	Z12	X13	Y13	Z13	X14	Y14	Z14	X15	Y15	Z15	X16	Y16	Z16	X17	Y17	Z17	X18	Y18	Z18	X19	Y19	Z19	X20	Y20	Z20	X21	Y21	Z21	X22	Y22	Z22	X23	Y23	Z23	X24	Y24	Z24	X25	Y25	Z25	X26	Y26	Z26	X27	Y27	Z27	X28	Y28	Z28	X29	Y29	Z29	X30	Y30	Z30	X31	Y31	Z31	X32	Y32	Z32	X33	Y33	Z33	X34	Y34	Z34	X35	Y35	Z35	X36	Y36	Z36	X37	Y37	Z37	X38	Y38	Z38	X39	Y39	Z39	X40	Y40	Z40	X41	Y41	Z41	X42	Y42	Z42	

110	1.090	1391.82227	1362.23792	1745.74585	1250.43237	1361.56580	1722.77991	1402.01526	1490.56519	1667.46875	1262.17822	1502.47498	1643.25989	1326.08032	1545.58093	1533.40784	1311.49866	1616.50378	1262.40405	1353.67224	1414.13806	1454.64075	1354.55750	1374.86218	1279.00110	1254.70264	1606.79041	1362.74805	1511.31189	1496.11108	1505.89868	1619.41125	1493.68640	1321.13757	1661.52075	1463.69177	1189.57300	1695.49377	1413.06885	1071.48828	1684.39014	1319.46069	968.62750	1717.43787	1364.20679	960.72192	1732.98157	1323.65564	910.65802	1150.23303	1446.41467	1490.05847	1067.71277	1479.86060	1298.84863	1056.15466	1476.54126	1151.53308	1041.29419	1445.77393	1034.07959	1064.48425	1393.76477	910.03986	1032.41113	1441.50403	903.76062	1032.49182	1401.57776	842.62616	1479.09204	1428.04517	985.33350	1227.16943	1380.54089	980.22955	1361.77710	1617.08301	1041.67834	1247.94458	1602.44934	1039.17395	1498.19922	1552.09583	683.61407	1450.87854	1610.74585	488.96661	1424.92603	1689.92188	311.34637	1385.73560	1700.50781	86.93638	1325.06128	1716.89795	60.81248	1459.44519	1564.50903	41.31352	1141.79016	1375.77441	688.96796	1180.64514	1313.49219	491.65216	1168.26611	1334.45618	305.31192	1197.07605	1336.02087	111.86805	1251.67627	1365.33301	52.62743	1195.24890	1181.45374	70.40656	1298.99341	1465.31287	1804.65063	-3360.29688	2845.19995	1034.14087			 
111	1.100	1392.62439	1354.62256	1744.98694	1251.23718	1354.60693	1721.77234	1403.47766	1482.99121	1666.76111	1263.57898	1495.40381	1642.35168	1328.07336	1538.38696	1532.66724	1313.76306	1609.66980	1261.85510	1354.84058	1406.85254	1453.82825	1355.44983	1367.84863	1278.13452	1257.30811	1600.27942	1362.19849	1512.99744	1487.54211	1505.27026	1621.54993	1484.00732	1321.07568	1664.53577	1452.88806	1190.08984	1698.37537	1400.20447	1072.57495	1687.81641	1304.51062	971.54565	1720.63354	1349.51111	962.87878	1736.45386	1308.11365	913.55914	1151.76221	1440.53650	1489.29004	1069.24585	1474.56909	1298.15967	1057.56775	1472.09155	1150.99719	1042.45691	1441.88123	1033.26660	1065.31848	1391.92029	908.99835	1033.15186	1438.23181	903.09308	1032.90112	1398.56604	841.63635	1480.15161	1421.31848	984.47528	1228.30994	1373.76416	979.94470	1363.14099	1610.23145	1040.93066	1249.27039	1595.68652	1038.63391	1498.77002	1547.45850	683.14813	1451.16797	1607.42493	488.90192	1425.19141	1688.10217	312.06540	1385.97827	1700.35706	87.72215	1324.76697	1716.41187	61.59420	1459.49622	1564.48682	41.26409	1142.65405	1370.17175	688.07111	1183.36353	1307.81018	490.53940	1171.78174	1320.48047	303.45636	1201.60986	1314.08679	110.16163	1256.38000	1341.28931	50.36904	1200.73438	1157.71240	73.86154	1300.22961	1458.13831	1803.87549	-3360.40942	2845.16992	1033.85815			 
112	1.110	1393.49927	1347.10608	1744.22095	1251.98804	1347.64453	1720.89392	1404.86475	1475.35815	1666.03418	1265.01221	1488.34778	1641.51575	1329.96765	1531.14087	1531.92737	1315.78845	1602.72363	1261.14270	1355.53711	1399.59509	1452.75366	1356.27527	1360.66992	1277.17822	1259.54504	1593.56812	1361.46558	1514.57751	1478.97913	1504.56775	1623.57532	1474.46045	1320.89124	1666.89258	1442.14673	1190.17957	1701.31860	1387.71423	1073.73486	1691.03662	1290.11401	974.38861	1723.46411	1335.21313	964.77856	1739.56592	1293.00439	916.25122	1153.02405	1434.43665	1488.36316	1071.00806	1469.26965	1297.69739	1058.79163	1467.45190	1150.37842	1043.47083	1437.48853	1032.68738	1065.70300	1388.26538	907.89008	1033.76819	1434.85608	902.30548	1033.13428	1395.49133	840.66663	1481.28613	1414.41541	983.50781	1229.49231	1366.68091	979.74872	1364.24390	1603.20764	1040.15344	1250.40601	1588.69031	1037.98169	1499.00232	1542.45190	682.36163	1451.65234	1603.98560	489.02417	1425.49133	1686.10120	312.83951	1386.25024	1700.18018	88.69717	1325.42297	1716.65222	62.66006	1459.54797	1564.46875	41.17479	1143.77771	1364.63635	686.97815	1186.10229	1302.10571	489.40039	1175.12134	1306.97803	301.95685	1205.98657	1292.59985	108.98305	1261.02600	1317.76245	48.98718	1205.92358	1134.86072	78.01235	1301.45300	1450.90283	1803.06299	-3360.24487	2845.18481	1034.00684			 
113	1.120	1394.12830	1339.43909	1743.36389	1252.40002	1340.50732	1719.65369	1406.13171	1467.69287	1665.21460	1266.29517	1481.25586	1640.54639	1331.78027	1523.85254	1531.08813	1317.53662	1595.56689	1260.36768	1356.53259	1392.15881	1451.91089	1356.80225	1353.41272	1276.05566	1261.60217	1586.79492	1360.68201	1515.97131	1470.52222	1503.81982	1625.50269	1465.01257	1320.56641	1669.20251	1431.60852	1190.24194	1703.69482	1375.39514	1074.53931	1693.96289	1276.00378	977.03558	1725.93286	1321.31274	966.52875	1742.36597	1278.30212	918.77789	1154.22949	1428.22205	1487.38232	1071.86121	1464.48792	1296.79443	1060.23425	1462.51770	1149.54602	1044.19019	1433.52905	1031.68787	1066.23779	1384.33594	906.34387	1034.33911	1431.24048	901.48303	1033.33936	1392.25842	839.60162	1482.49597	1407.56470	982.62329	1230.75244	1359.31506	979.34393	1365.08020	1596.08997	1039.21838	1251.29980	1581.46960	1037.31018	1500.01025	1537.71985	682.28381	1452.08301	1600.31201	489.13129	1425.75073	1684.00623	313.66653	1386.50208	1699.93542	89.54930	1325.31641	1716.34448	63.80446	1459.64111	1564.48413	41.11926	1144.76428	1359.15771	685.65125	1188.53235	1296.49561	488.27252	1178.30920	1294.01978	300.73932	1210.17603	1271.30200	108.72124	1265.49683	1295.02112	48.16995	1210.69727	1112.78052	82.32498	1302.26343	1443.59192	1802.08301	-3360.17236	2845.05859	1034.19763			 
114	1.130	1394.51575	1331.69568	1742.36682	1253.08582	1333.48547	1718.83618	1407.24731	1459.96436	1664.36475	1267.39026	1474.02100	1639.62463	1333.33447	1516.50195	1530.16272	1319.02502	1588.27771	1259.47546	1357.58997	1384.71716	1451.06250	1357.58984	1346.05261	1275.13574	1263.55652	1579.87524	1359.84155	1517.40894	1462.15173	1503.16846	1627.30396	1455.70435	1320.17944	1671.23145	1421.16626	1190.21997	1705.72913	1363.28711	1075.12134	1696.96484	1262.21704	979.76044	1727.91626	1307.73499	967.97528	1744.82288	1264.03296	921.09064	1155.33496	1421.94202	1486.38086	1073.22351	1458.98926	1296.06726	1061.30884	1457.47058	1148.76453	1044.90430	1429.08545	1030.99353	1066.00549	1380.52942	905.58990	1035.01416	1427.54285	900.69116	1033.44922	1388.87646	838.52649	1483.79797	1400.64795	981.62720	1231.75366	1351.69836	978.81268	1365.73413	1588.71228	1038.21680	1252.04028	1573.98206	1036.50891	1500.53491	1532.53699	681.78979	1452.50537	1596.54077	489.24677	1425.94824	1681.80566	314.59909	1386.70776	1699.68274	90.43058	1325.53955	1716.22363	64.95080	1459.78931	1564.47424	41.10375	1145.65405	1353.50940	684.26691	1190.77832	1290.80249	487.19913	1181.41687	1281.76355	299.88785	1213.97571	1251.54089	108.62073	1269.74182	1273.27222	48.06032	1215.24390	1091.78699	86.65523	1303.21509	1436.24377	1801.14551	-3360.35376	2845.27197	1033.89392			 
115	1.140	1395.10168	1324.02539	1741.53174	1253.55139	1326.32581	1717.74194	1408.21228	1452.21680	1663.49316	1268.52771	1466.85547	1638.66565	1334.83093	1509.09412	1529.22021	1320.21875	1580.82446	1258.56030	1358.46118	1377.10083	1450.20313	1358.54761	1338.56580	1274.33264	1265.34399	1572.84741	1358.94092	1518.53369	1453.74451	1502.27039	1628.83960	1446.46057	1319.69434	1673.09241	1410.84839	1190.12122	1707.63342	1351.42676	1075.67834	1699.15894	1248.80835	982.01086	1729.68005	1294.51123	969.29785	1746.92188	1250.19543	923.22485	1157.15625	1416.49268	1485.58691	1074.34229	1453.25769	1295.34167	1062.25684	1452.24036	1147.90161	1045.33362	1424.40002	1029.95569	1066.38147	1376.13513	904.04572	1035.35767	1423.57593	899.69562	1033.47876	1385.28271	837.39856	1485.08728	1393.68555	980.74097	1233.13269	1343.91870	978.39716	1366.10779	1581.25879	1037.21997	1252.56592	1566.21277	1035.63330	1501.11584	1527.11682	681.35132	1452.91296	1592.57593	489.35254	1426.06299	1679.51404	315.62137	1386.89343	1699.32874	91.42429	1325.70947	1715.97498	66.19040	1459.91699	1564.48840	41.04545	1146.46936	1347.71594	682.72711	1193.16699	1284.89307	485.79767	1184.42261	1270.07922	299.27103	1217.72144	1232.68018	108.89713	1273.70886	1252.47180	48.24089	1219.59241	1071.97375	90.93764	1304.13818	1428.87109	1800.25684	-3360.36377	2845.14893	1034.26086			 
116	1.150	1395.40503	1316.25989	1740.58276	1253.90076	1319.08984	1716.73950	1409.37805	1444.58386	1662.77441	1269.45959	1459.56323	1637.69800	1336.02344	1501.63684	1528.22534	1321.19556	1573.21790	1257.54993	1358.87671	1369.47046	1449.09656	1358.96350	1330.94971	1273.26501	1266.74939	1565.52673	1357.85291	1519.59155	1445.42554	1501.43164	1630.17578	1437.25464	1319.10852	1674.72192	1400.67993	1189.91431	1709.33899	1339.89734	1076.27136	1701.43347	1235.53894	984.38660	1730.90894	1281.45923	970.21930	1748.46277	1236.54187	925.06293	1157.26050	1408.97034	1484.38477	1075.10876	1446.91345	1294.16235	1062.98218	1446.84985	1147.04187	1045.99365	1419.53601	1029.01208	1065.59229	1371.27393	903.04303	1035.31201	1419.75159	898.69537	1033.51660	1381.41785	836.29987	1486.05676	1386.17786	979.56891	1234.35522	1335.92786	977.70093	1366.30481	1573.63513	1036.12708	1252.93884	1558.22363	1034.73315	1501.72388	1521.55908	680.92761	1453.33411	1588.39282	489.49448	1426.18896	1677.08154	316.65768	1387.14844	1699.01721	92.56554	1326.29651	1715.98499	67.54061	1460.04907	1564.48401	40.99092	1147.28174	1341.71265	681.05432	1195.38135	1278.71753	484.31021	1187.31140	1258.98853	298.63968	1221.86353	1214.83289	109.10758	1277.62366	1233.23523	48.81503	1223.61487	1053.51965	94.97121	1304.75928	1421.42261	1799.25635	-3360.20508	2845.07080	1034.10388			 
117	1.160	1395.51807	1308.32800	1739.60999	1254.17749	1311.76440	1715.63403	1410.16150	1436.74609	1661.94116	1270.25854	1452.24390	1636.76746	1337.17200	1494.05457	1527.22302	1321.99890	1565.43054	1256.44202	1359.64709	1361.75183	1448.31543	1359.54187	1323.18347	1272.30872	1267.95996	1558.04688	1356.78821	1520.55078	1437.05200	1500.53113	1631.29175	1428.04102	1318.42871	1676.05908	1390.61523	1189.54541	1710.37976	1328.33813	1076.31934	1703.27258	1222.86035	986.51166	1731.90674	1268.64624	971.08813	1750.07996	1223.42188	926.81061	1158.61267	1403.02051	1483.45813	1075.92896	1441.53674	1293.21912	1063.62427	1441.22778	1146.21704	1046.04431	1414.90417	1028.03210	1065.31360	1366.60681	901.89600	1035.75146	1415.07556	897.83984	1033.42761	1377.38086	835.13947	1487.28174	1378.96338	978.55139	1235.58618	1327.72900	976.79437	1366.31750	1565.90955	1035.14063	1253.08289	1550.00598	1033.81738	1502.22131	1515.85999	680.46143	1453.82019	1583.96179	489.66241	1426.39453	1674.42151	317.76154	1387.43408	1698.56689	93.73052	1326.29004	1715.46741	69.07171	1460.18896	1564.46912	40.94201	1148.14294	1335.33740	679.35315	1197.57263	1272.19482	482.91360	1190.01746	1248.25012	297.95453	1224.54944	1199.02441	109.98713	1281.20081	1215.38611	49.14112	1227.19055	1036.66272	98.74123	1305.25671	1413.88953	1798.32068	-3357.39038	2845.83691	1034.23987			 
